<?xml version="1.0" encoding="UTF-8"?>
<svg xmlns="http://www.w3.org/2000/svg" version="1.1" viewBox="0 0 700 300">
  <defs>
    <style>
      .cls-1 {
        fill: #fff;
      }
    </style>
  </defs>
  <!-- Generator: Adobe Illustrator 28.6.0, SVG Export Plug-In . SVG Version: 1.2.0 Build 709)  -->
  <g>
    <g id="Layer_1">
      <path class="cls-1" d="M211.3,226.3v47.3h-23.9v-43.6c0-13.4-6-19.5-15.7-19.5s-18.3,6.9-18.3,21.6v41.4h-23.9v-43.6c0-13.4-5.7-19.5-15.7-19.5s-18.1,6.9-18.1,21.6v41.4h-24.7v-82.6h23.6v9.5c6.1-7.1,15.3-10.7,25.9-10.7s21.3,4.5,27.2,13.5c6.6-8.4,17.3-13.5,29.8-13.5,19.6,0,33.8,11.4,33.8,36.5ZM309.5,232.3c0,24.9-19,42.5-45.3,42.5s-45.4-17.6-45.4-42.5,19.2-42.5,45.4-42.5,45.3,17.6,45.3,42.5ZM285.2,232.3c0-14.3-9.1-22.9-21-22.9s-21.2,8.6-21.2,22.9,9.2,22.9,21.2,22.9,21-8.6,21-22.9ZM406.8,232.3c0,25.9-18,42.5-41.1,42.5s-20-3.5-25.9-10.7v9.5h-22.9v-113.9h23.9v40.1c6.1-6.8,14.6-10,24.9-10,23.2,0,41.1,16.6,41.1,42.5ZM382.6,232.3c0-14.3-9.1-22.9-21-22.9s-21,8.6-21,22.9,9.1,22.9,21,22.9,21-8.6,21-22.9ZM518.1,189.7v-1.3c0-18.6,11.4-30.7,31.9-30.7h12.6v18.9h-10.3c-7.1,0-10.9,3.8-10.9,12v1.1h21.2v19.6h-20.6v64.2h-23.9v-64.2h-21.5c4.1,6.5,6.5,14.2,6.5,22.9,0,24.9-19,42.5-45.3,42.5s-45.4-17.6-45.4-42.5,19.2-42.5,45.4-42.5h60.3ZM478.8,232.3c0-14.3-9.1-22.9-21-22.9s-21.2,8.6-21.2,22.9,9.2,22.9,21.2,22.9,21-8.6,21-22.9ZM572.6,273.5h23.9v-82.6h-23.9v82.6ZM631.8,215.5c0-4.3,4.6-7.7,15.3-7.7s15.7,1.5,23.8,6.1l8-17c-7.8-4.6-20.4-7.2-31.8-7.2-24.1,0-38.2,11-38.2,26.7,0,33,49.9,19.2,49.9,32.7s-4.1,7.5-15.2,7.5-21.3-3.2-28.7-8l-8,17.2c7.7,5.1,21.8,8.9,35.8,8.9,24.7,0,39-10.9,39-26.2,0-32.5-49.9-18.9-49.9-33ZM460.1,232.8v-16.2c0-1.5-1.3-2.8-2.8-2.8s-2.8,1.3-2.8,2.8v19.1c0,.4,0,.8.2,1.1.3.7.8,1.2,1.5,1.5.3.1.7.2,1.1.2h14c1.5,0,2.8-1.3,2.8-2.8s-1.3-2.8-2.8-2.8h-11.2ZM584.5,153.9c-8.9,0-14.9,5.8-14.9,13.4s6,13.4,14.9,13.4,14.9-5.8,14.9-13.8-6-12.9-14.9-12.9Z"/>
    </g>
  </g>
</svg>