<?xml version="1.0" encoding="utf-8"?>
<!-- Generator: Adobe Illustrator 28.3.0, SVG Export Plug-In . SVG Version: 6.00 Build 0)  -->
<svg version="1.1" id="Layer_1" xmlns="http://www.w3.org/2000/svg" xmlns:xlink="http://www.w3.org/1999/xlink" x="0px" y="0px"
	 viewBox="0 0 595.3 273.5" enable-background="new 0 0 595.3 273.5" xml:space="preserve">
<g>
	<path fill="#001a7e" stroke="#001a7e" stroke-width="0.5" stroke-miterlimit="10" d="M180.4,120.4c5.8,0,10.4,1.9,13.9,5.7
		c3.5,3.8,5.2,8.8,5.2,15.2v24.6c0,3.6-2.9,6.5-6.5,6.5h0c-3.6,0-6.5-2.9-6.5-6.5v-23.7c0-3-0.7-5.4-2.2-7.1
		c-1.5-1.7-3.6-2.5-6.3-2.5c-3,0-5.3,1-6.9,2.9c-1.7,2-2.5,4.8-2.5,8.5v21.9c0,3.6-2.9,6.5-6.5,6.5h0c-3.6,0-6.5-2.9-6.5-6.5v-23.7
		c0-3-0.7-5.4-2.2-7.1c-1.5-1.7-3.6-2.5-6.3-2.5c-2.9,0-5.2,1-6.9,2.9c-1.7,2-2.6,4.8-2.6,8.5v21.9c0,3.6-2.9,6.5-6.5,6.5h0
		c-3.6,0-6.5-2.9-6.5-6.5v-38.7c0-3,2.4-5.4,5.4-5.4h2.3c3,0,5.4,2.4,5.4,5.4l0,0c3-4.5,7.7-6.8,14.1-6.8c6.2,0,10.8,2.4,13.7,7.3
		C168.7,122.8,173.7,120.4,180.4,120.4z"/>
	<path fill="#001a7e" stroke="#001a7e" stroke-width="0.5" stroke-miterlimit="10" d="M248.7,128.1c-5.2-5.2-11.5-7.7-19-7.7
		s-13.8,2.6-19,7.7c-5.2,5.2-7.7,11.5-7.7,19c0,7.5,2.6,13.8,7.7,19c5.2,5.2,11.5,7.7,19,7.7s13.8-2.6,19-7.7
		c5.2-5.2,7.8-11.5,7.8-19C256.5,139.6,253.9,133.3,248.7,128.1z M239.5,157.1c-2.6,2.6-5.9,3.9-9.8,3.9c-3.9,0-7.2-1.3-9.8-3.9
		c-2.6-2.6-3.9-6-3.9-10c0-4,1.3-7.4,3.9-10c2.6-2.6,5.9-3.9,9.8-3.9c3.9,0,7.2,1.3,9.8,3.9c2.6,2.6,3.9,6,3.9,10
		C243.5,151.1,242.2,154.5,239.5,157.1z"/>
	<path fill="#001a7e" stroke="#001a7e" stroke-width="0.5" stroke-miterlimit="10" d="M290,120.4c6.8,0,12.6,2.6,17.4,7.7
		c4.8,5.2,7.2,11.5,7.2,19s-2.4,13.8-7.2,19c-4.8,5.2-10.6,7.7-17.4,7.7c-5.5,0-10-1.5-13.6-4.5c-1.1-0.9-2.8-0.1-2.8,1.3l0,0
		c0,0.9-0.8,1.7-1.7,1.7h-9.6c-0.9,0-1.7-0.8-1.7-1.7v-67.3c0-0.9,0.8-1.7,1.7-1.7h9.6c0.9,0,1.7,0.8,1.7,1.7v20.2
		c0,1.4,1.7,2.3,2.8,1.3C280,121.9,284.5,120.4,290,120.4z M277.6,157.4c2.6,2.7,6,4,10,4c4,0,7.4-1.3,10.1-4c2.7-2.7,4-6.1,4-10.3
		c0-4.2-1.3-7.6-4-10.3c-2.7-2.7-6-4-10.1-4c-4,0-7.4,1.3-10,4c-2.6,2.7-3.9,6.1-3.9,10.3C273.7,151.3,275,154.7,277.6,157.4z"/>
	<path fill="#001a7e" stroke="#001a7e" stroke-width="0.5" stroke-miterlimit="10" d="M404,112.7c0.9,0,1.7-0.8,1.7-1.7v-9
		c0-1-0.8-1.8-1.9-1.9c-7-0.1-12.3,1.5-15.9,4.9c-4,3.7-6,9.1-6,16.3v0.5h-28.8c-2.8-1-5.7-1.4-8.9-1.4c-7.5,0-13.8,2.6-19,7.7
		c-5.2,5.2-7.7,11.5-7.7,19c0,7.5,2.6,13.8,7.7,19c5.2,5.2,11.5,7.7,19,7.7c7.5,0,13.8-2.6,19-7.7c5.2-5.2,7.8-11.5,7.8-19
		c0-4.7-1-9-3.1-12.7h12.2c1,0,1.9,0.8,1.9,1.9v34.3c0,1,0.8,1.9,1.9,1.9h9.3c1,0,1.9-0.8,1.9-1.9v-34.3c0-1,0.8-1.9,1.9-1.9h7
		c1,0,1.9-0.8,1.9-1.9v-8.8c0-1-0.8-1.9-1.9-1.9H395v-0.5C395,115.6,398,112.7,404,112.7z M354,157.1c-2.6,2.6-5.9,3.9-9.8,3.9
		c-3.9,0-7.2-1.3-9.8-3.9c-2.6-2.6-3.9-6-3.9-10c0-4,1.3-7.4,3.9-10c2.6-2.6,5.8-3.9,9.8-3.9c3.9,0,7.2,1.3,9.8,3.9
		c2.6,2.6,3.9,6,3.9,10C357.9,151.1,356.6,154.5,354,157.1z"/>
	<path fill="#001a7e" stroke="#001a7e" stroke-width="0.5" stroke-miterlimit="10" d="M418,115.8c-2.2,0-4-0.8-5.6-2.4
		c-1.6-1.6-2.4-3.5-2.4-5.6c0-2.2,0.8-4,2.4-5.7c1.6-1.6,3.5-2.4,5.6-2.4c2.2,0,4.1,0.8,5.7,2.4c1.6,1.6,2.4,3.5,2.4,5.7
		c0,2.2-0.8,4-2.4,5.6C422.2,115,420.3,115.8,418,115.8z M411.6,165.9v-37.5c0-3.6,2.9-6.5,6.5-6.5h0c3.6,0,6.5,2.9,6.5,6.5v37.5
		c0,3.6-2.9,6.5-6.5,6.5h0C414.5,172.4,411.6,169.5,411.6,165.9z"/>
	<path fill="#001a7e" stroke="#001a7e" stroke-width="0.5" stroke-miterlimit="10" d="M444.8,136.2c0,1.3,0.9,2.4,2.7,3.3
		c1.8,0.8,4,1.6,6.5,2.2c2.6,0.6,5.1,1.5,7.7,2.4c2.6,1,4.7,2.6,6.5,4.9c1.8,2.3,2.7,5.2,2.7,8.6c0,5.2-1.9,9.2-5.8,12
		c-3.9,2.8-8.7,4.2-14.5,4.2c-7.1,0-12.7-1.9-16.7-5.6c-3-2.8-2.3-7.7,1.2-9.7l0.7-0.4c2.3-1.3,5.2-0.7,7.1,1.2
		c1.8,1.8,4.3,2.7,7.6,2.7c4.7,0,7-1.4,7-4.3c0-1.3-0.9-2.4-2.7-3.3c-1.8-0.8-4-1.6-6.5-2.3c-2.6-0.7-5.1-1.5-7.7-2.5
		c-2.6-1-4.7-2.6-6.5-4.8c-1.8-2.2-2.7-4.9-2.7-8.2c0-5,1.8-8.9,5.5-11.8c3.7-2.9,8.2-4.3,13.7-4.3c4.1,0,7.9,0.9,11.2,2.8
		c0.7,0.4,1.3,0.8,1.9,1.2c3.7,2.6,3.4,8.2-0.6,10.3h0c-2.2,1.2-5,0.9-6.9-0.8c-1.5-1.3-3.4-1.9-5.7-1.9c-1.7,0-3.1,0.4-4.2,1.1
		C445.3,133.9,444.8,134.9,444.8,136.2z"/>
	
		<path id="Shape_00000062892651227678840880000006927863012401935790_" fill="#001a7e" stroke="#001a7e" stroke-width="0.25" stroke-miterlimit="10" d="
		M351,147.4h-6.3v-6.3c0-1.2-0.9-2.1-2.1-2.1s-2.1,0.9-2.1,2.1v8.4c0,1.2,0.9,2.1,2.1,2.1h8.4c1.2,0,2.1-0.9,2.1-2.1
		S352.2,147.4,351,147.4z"/>
</g>
</svg>
