<?xml version="1.0" encoding="UTF-8"?>
<svg id="Layer_1" data-name="Layer 1" xmlns="http://www.w3.org/2000/svg" version="1.1" viewBox="0 0 346.5 80.5">
  <defs>
    <style>
      .cls-1 {
        stroke-width: .2px;
      }

      .cls-1, .cls-2 {
        fill: #001a7e;
        stroke: #001a7e;
        stroke-miterlimit: 10;
      }

      .cls-2 {
        stroke-width: .5px;
      }
    </style>
  </defs>
  <path class="cls-2" d="M57,24.5c5.8,0,10.3,1.8,13.8,5.5s5.2,8.5,5.2,14.6v23.7c0,3.5-2.9,6.3-6.4,6.3h0c-3.6,0-6.4-2.8-6.4-6.3v-22.8c0-2.9-.7-5.2-2.2-6.8-1.5-1.6-3.6-2.4-6.2-2.4s-5.3,1-6.8,2.8c-1.7,1.9-2.5,4.6-2.5,8.2v21.1c0,3.5-2.9,6.3-6.4,6.3h0c-3.6,0-6.4-2.8-6.4-6.3v-22.8c0-2.9-.7-5.2-2.2-6.8-1.5-1.6-3.6-2.4-6.2-2.4s-5.2,1-6.8,2.8c-1.7,1.9-2.6,4.6-2.6,8.2v21.1c0,3.5-2.9,6.3-6.4,6.3h0c-3.6,0-6.4-2.8-6.4-6.3V31.1c0-2.9,2.4-5.2,5.4-5.2h2.3c3,0,5.4,2.3,5.4,5.2h0c3-4.3,7.6-6.5,14-6.5s10.7,2.3,13.6,7c3.2-4.7,8.1-7,14.8-7Z"/>
  <path class="cls-2" d="M124.7,32c-5.2-5-11.4-7.4-18.8-7.4s-13.7,2.5-18.8,7.4c-5.2,5-7.6,11.1-7.6,18.3s2.6,13.3,7.6,18.3c5.2,5,11.4,7.4,18.8,7.4s13.7-2.5,18.8-7.4c5.2-5,7.7-11.1,7.7-18.3s-2.6-13.3-7.7-18.3ZM115.6,59.9c-2.6,2.5-5.9,3.8-9.7,3.8s-7.1-1.3-9.7-3.8c-2.6-2.5-3.9-5.8-3.9-9.6s1.3-7.1,3.9-9.6c2.6-2.5,5.9-3.8,9.7-3.8s7.1,1.3,9.7,3.8c2.6,2.5,3.9,5.8,3.9,9.6,0,3.8-1.2,7.1-3.9,9.6Z"/>
  <path class="cls-2" d="M165.7,24.5c6.7,0,12.5,2.5,17.3,7.4,4.8,5,7.1,11.1,7.1,18.3s-2.4,13.3-7.1,18.3c-4.8,5-10.5,7.4-17.3,7.4s-9.9-1.4-13.5-4.3c-1.1-.9-2.8,0-2.8,1.3h0c0,.9-.8,1.6-1.7,1.6h-9.5c-.9,0-1.7-.8-1.7-1.6V8.1c0-.9.8-1.6,1.7-1.6h9.5c.9,0,1.7.8,1.7,1.6v19.4c0,1.3,1.7,2.2,2.8,1.3,3.6-2.8,8-4.2,13.5-4.2ZM153.4,60.1c2.6,2.6,5.9,3.8,9.9,3.8s7.3-1.3,10-3.8,4-5.9,4-9.9-1.3-7.3-4-9.9-5.9-3.8-10-3.8-7.3,1.3-9.9,3.8-3.9,5.9-3.9,9.9,1.3,7.3,3.9,9.9Z"/>
  <path class="cls-2" d="M278.7,17.1c.9,0,1.7-.8,1.7-1.6V6.8c0-1-.8-1.7-1.9-1.8-6.9,0-12.2,1.4-15.8,4.7-4,3.6-5.9,8.8-5.9,15.7v.5h-28.6c-2.8-1-5.7-1.3-8.8-1.3-7.4,0-13.7,2.5-18.8,7.4-5.2,5-7.6,11.1-7.6,18.3s2.6,13.3,7.6,18.3c5.2,5,11.4,7.4,18.8,7.4s13.7-2.5,18.8-7.4c5.2-5,7.7-11.1,7.7-18.3s-1-8.7-3.1-12.2h12.1c1,0,1.9.8,1.9,1.8v33c0,1,.8,1.8,1.9,1.8h9.2c1,0,1.9-.8,1.9-1.8v-33c0-1,.8-1.8,1.9-1.8h6.9c1,0,1.9-.8,1.9-1.8v-8.5c0-1-.8-1.8-1.9-1.8h-8.9v-.5c0-5.5,3-8.3,8.9-8.3ZM229.1,59.9c-2.6,2.5-5.9,3.8-9.7,3.8s-7.1-1.3-9.7-3.8c-2.6-2.5-3.9-5.8-3.9-9.6s1.3-7.1,3.9-9.6,5.8-3.8,9.7-3.8,7.1,1.3,9.7,3.8c2.6,2.5,3.9,5.8,3.9,9.6s-1.3,7.1-3.9,9.6Z"/>
  <path class="cls-2" d="M292.6,20.1c-2.2,0-4-.8-5.6-2.3s-2.4-3.4-2.4-5.4.8-3.8,2.4-5.5c1.6-1.5,3.5-2.3,5.6-2.3s4.1.8,5.7,2.3,2.4,3.4,2.4,5.5-.8,3.8-2.4,5.4c-1.5,1.5-3.4,2.3-5.7,2.3ZM286.2,68.3v-36.1c0-3.5,2.9-6.3,6.4-6.3h0c3.6,0,6.4,2.8,6.4,6.3v36.1c0,3.5-2.9,6.3-6.4,6.3h0c-3.6,0-6.4-2.8-6.4-6.3Z"/>
  <path class="cls-2" d="M319.2,39.7c0,1.3.9,2.3,2.7,3.2,1.8.8,4,1.5,6.4,2.1,2.6.6,5.1,1.4,7.6,2.3,2.6,1,4.7,2.5,6.4,4.7,1.8,2.2,2.7,5,2.7,8.3,0,5-1.9,8.9-5.8,11.5-3.9,2.7-8.6,4-14.4,4s-12.6-1.8-16.6-5.4c-3-2.7-2.3-7.4,1.2-9.3l.7-.4c2.3-1.3,5.2-.7,7,1.2,1.8,1.7,4.3,2.6,7.5,2.6,4.7,0,6.9-1.3,6.9-4.1s-.9-2.3-2.7-3.2c-1.8-.8-4-1.5-6.4-2.2-2.6-.7-5.1-1.4-7.6-2.4s-4.7-2.5-6.4-4.6-2.7-4.7-2.7-7.9c0-4.8,1.8-8.6,5.5-11.4s8.1-4.1,13.6-4.1,7.8.9,11.1,2.7c.7.4,1.3.8,1.9,1.2,3.7,2.5,3.4,7.9-.6,9.9h0c-2.2,1.2-5,.9-6.8-.8-1.5-1.3-3.4-1.8-5.7-1.8s-3.1.4-4.2,1.1c-1,.7-1.5,1.6-1.5,2.9Z"/>
  <path id="Shape" class="cls-1" d="M226.2,50.5h-6.2v-6.1c0-1.2-.9-2-2.1-2s-2.1.9-2.1,2v8.1c0,1.2.9,2,2.1,2h8.3c1.2,0,2.1-.9,2.1-2s-.9-2-2.1-2Z"/>
</svg>